<svg width="1440" height="1217" viewBox="0 0 1440 1217" fill="none" xmlns="http://www.w3.org/2000/svg">
<rect y="264" width="1440" height="689" fill="#2C4D35"/>
<circle cx="825.5" cy="580.5" r="132" stroke="#35583F" stroke-width="59"/>
<path d="M1178 953C1178 882.983 1205.81 815.834 1255.32 766.324C1304.83 716.814 1371.98 689 1442 689L1442 953L1178 953Z" fill="#35583F"/>
<path d="M1275 953C1275 908.709 1292.59 866.232 1323.91 834.913C1355.23 803.595 1397.71 786 1442 786L1442 953L1275 953Z" fill="#2C4D35"/>
<path d="M264 264C264 334.017 236.186 401.166 186.677 450.676C137.167 500.185 70.0182 528 0.0012207 528L0 264H264Z" fill="#35583F"/>
<path d="M167 264C167 308.291 149.406 350.768 118.087 382.087C86.7687 413.405 44.2918 431 0.000762939 431L0 264H167Z" fill="#2C4D35"/>
</svg>
