<svg width="50" height="50" viewBox="0 0 50 50" fill="none" xmlns="http://www.w3.org/2000/svg">
<circle cx="25" cy="25" r="25" fill="#2C4D35"/>
<path d="M41.9097 14.9111C41.7519 14.1163 41.3995 13.389 40.9074 12.7882C40.8036 12.6573 40.6952 12.5401 40.5777 12.4228C39.7058 11.5466 38.482 11 37.1451 11H11.855C10.5181 11 9.29866 11.5466 8.42263 12.4228C8.30539 12.5401 8.19697 12.6573 8.09293 12.7882C7.60054 13.389 7.24815 14.1163 7.09475 14.9111C7.03172 15.2178 7 15.5348 7 15.8552V33.6173C7 34.2987 7.14451 34.9537 7.40223 35.5452C7.64128 36.1099 7.99374 36.6208 8.42256 37.0492C8.53125 37.1576 8.63919 37.2573 8.75698 37.3564C9.59684 38.052 10.681 38.472 11.855 38.472H37.1451C38.3195 38.472 39.4084 38.052 40.2434 37.352C40.3608 37.2573 40.4693 37.1576 40.5777 37.0492C41.0063 36.6208 41.3587 36.1099 41.6027 35.5452V35.5409C41.8603 34.9493 42 34.2987 42 33.6174V15.8552C42.0001 15.5348 41.9688 15.2178 41.9097 14.9111ZM10.1793 14.1793C10.6131 13.7461 11.1956 13.4838 11.855 13.4838H37.1451C37.8045 13.4838 38.3921 13.7461 38.8207 14.1793C38.8974 14.2565 38.9697 14.3425 39.0335 14.428L25.7781 25.9804C25.4125 26.3008 24.9609 26.459 24.5 26.459C24.0438 26.459 23.5925 26.3008 23.2221 25.9804L9.97172 14.423C10.0304 14.3376 10.1026 14.2565 10.1793 14.1793ZM9.48377 33.6173V16.9933L19.0763 25.3615L9.48863 33.7209C9.48377 33.6891 9.48377 33.6535 9.48377 33.6173ZM37.1451 35.9878H11.855C11.4256 35.9878 11.0238 35.8749 10.681 35.6766L20.7967 26.861L21.741 27.6826C22.5313 28.3693 23.5203 28.7171 24.5 28.7171C25.4848 28.7171 26.4737 28.3693 27.2639 27.6826L28.2079 26.861L38.3196 35.6766C37.9762 35.8749 37.5745 35.9878 37.1451 35.9878ZM39.5163 33.6173C39.5163 33.6535 39.5163 33.6891 39.5116 33.7209L29.9241 25.3664L39.5163 16.9977V33.6173Z" fill="white"/>
</svg>
