<svg width="50" height="50" viewBox="0 0 50 50" fill="none" xmlns="http://www.w3.org/2000/svg">
<circle cx="25" cy="25" r="25" fill="#2C4D35"/>
<path fill-rule="evenodd" clip-rule="evenodd" d="M25.5 33.75C30.6086 33.75 34.75 29.6086 34.75 24.5C34.75 19.3914 30.6086 15.25 25.5 15.25C20.3914 15.25 16.25 19.3914 16.25 24.5C16.25 29.6086 20.3914 33.75 25.5 33.75ZM25.5 30.6667C28.9057 30.6667 31.6667 27.9057 31.6667 24.5C31.6667 21.0942 28.9057 18.3333 25.5 18.3333C22.0942 18.3333 19.3333 21.0942 19.3333 24.5C19.3333 27.9057 22.0942 30.6667 25.5 30.6667Z" fill="white"/>
<path d="M34.75 13.7085C33.8985 13.7085 33.2083 14.3987 33.2083 15.2502C33.2083 16.1016 33.8985 16.7918 34.75 16.7918C35.6014 16.7918 36.2916 16.1016 36.2916 15.2502C36.2916 14.3987 35.6014 13.7085 34.75 13.7085Z" fill="white"/>
<path fill-rule="evenodd" clip-rule="evenodd" d="M9.54988 12.5921C8.54169 14.5708 8.54169 17.161 8.54169 22.3415V26.6582C8.54169 31.8386 8.54169 34.4289 9.54988 36.4075C10.4367 38.1481 11.8518 39.5632 13.5923 40.4499C15.571 41.4582 18.1612 41.4582 23.3417 41.4582H27.6584C32.8388 41.4582 35.4291 41.4582 37.4077 40.4499C39.1482 39.5632 40.5633 38.1481 41.4501 36.4075C42.4584 34.4289 42.4584 31.8386 42.4584 26.6582V22.3415C42.4584 17.161 42.4584 14.5708 41.4501 12.5921C40.5633 10.8516 39.1482 9.43652 37.4077 8.54969C35.4291 7.5415 32.8388 7.5415 27.6584 7.5415H23.3417C18.1612 7.5415 15.571 7.5415 13.5923 8.54969C11.8518 9.43652 10.4367 10.8516 9.54988 12.5921ZM27.6584 10.6248H23.3417C20.7006 10.6248 18.9052 10.6272 17.5174 10.7406C16.1656 10.8511 15.4743 11.0512 14.9921 11.297C13.8317 11.8882 12.8884 12.8316 12.2971 13.9919C12.0514 14.4741 11.8512 15.1654 11.7408 16.5172C11.6274 17.905 11.625 19.7004 11.625 22.3415V26.6582C11.625 29.2994 11.6274 31.0946 11.7408 32.4824C11.8512 33.8343 12.0514 34.5256 12.2971 35.0078C12.8884 36.1681 13.8317 37.1114 14.9921 37.7027C15.4743 37.9484 16.1656 38.1487 17.5174 38.2591C18.9052 38.3724 20.7006 38.3748 23.3417 38.3748H27.6584C30.2995 38.3748 32.0948 38.3724 33.4826 38.2591C34.8345 38.1487 35.5258 37.9484 36.008 37.7027C37.1683 37.1114 38.1116 36.1681 38.7029 35.0078C38.9486 34.5256 39.1489 33.8343 39.2592 32.4824C39.3726 31.0946 39.375 29.2994 39.375 26.6582V22.3415C39.375 19.7004 39.3726 17.905 39.2592 16.5172C39.1489 15.1654 38.9486 14.4741 38.7029 13.9919C38.1116 12.8316 37.1683 11.8882 36.008 11.297C35.5258 11.0512 34.8345 10.8511 33.4826 10.7406C32.0948 10.6272 30.2995 10.6248 27.6584 10.6248Z" fill="white"/>
</svg>
