<svg width="65" height="65" viewBox="0 0 65 65" fill="none" xmlns="http://www.w3.org/2000/svg">
<circle cx="32.5" cy="32.5" r="32.5" fill="#EEA743"/>
<path d="M16.4688 48.336C16.4048 48.048 16.3408 47.712 16.2768 47.328C16.2128 46.912 16.1808 46.496 16.1808 46.08L18.4368 45.312C18.6608 44.736 18.9808 43.856 19.3968 42.672C19.8448 41.456 20.3568 40.032 20.9328 38.4C21.5408 36.768 22.1648 35.04 22.8048 33.216C23.4768 31.392 24.1168 29.584 24.7248 27.792C25.3648 25.968 25.9568 24.272 26.5008 22.704C27.0448 21.104 27.4928 19.744 27.8448 18.624L27.9888 17.136C28.7568 17.04 29.5888 16.944 30.4848 16.848C31.4128 16.72 32.3248 16.624 33.2208 16.56C34.1488 16.464 34.9808 16.416 35.7168 16.416L36.2448 16.944C36.6288 18.416 37.0768 20.032 37.5888 21.792C38.1328 23.552 38.6928 25.376 39.2688 27.264C39.8768 29.12 40.4848 30.96 41.0928 32.784C41.7008 34.576 42.2768 36.272 42.8208 37.872C43.3968 39.472 43.9088 40.896 44.3568 42.144C44.8048 43.36 45.1728 44.32 45.4608 45.024L47.8608 45.792C47.8608 46.176 47.8288 46.576 47.7648 46.992C47.7328 47.376 47.6688 47.712 47.5728 48C45.6848 48 43.8288 48.016 42.0048 48.048C40.1808 48.112 38.4848 48.16 36.9168 48.192C35.3488 48.256 33.9568 48.304 32.7408 48.336C32.6768 48.048 32.6128 47.728 32.5488 47.376C32.4848 47.024 32.4528 46.672 32.4528 46.32L36.2448 45.36C36.0528 44.4 35.7808 43.232 35.4288 41.856C35.0768 40.48 34.6768 39.024 34.2288 37.488L24.9648 38.112C24.6768 39.36 24.4048 40.592 24.1488 41.808C23.8928 42.992 23.7168 44.112 23.6208 45.168L27.7008 46.176C27.7008 46.496 27.6848 46.816 27.6528 47.136C27.6208 47.456 27.5568 47.744 27.4608 48C25.2528 48 23.2048 48.032 21.3168 48.096C19.4608 48.192 17.8448 48.272 16.4688 48.336ZM25.8288 34.656H33.4608C32.8848 32.672 32.2928 30.736 31.6848 28.848C31.0768 26.928 30.5008 25.296 29.9568 23.952L29.4288 23.376C29.1088 24.368 28.7408 25.488 28.3248 26.736C27.9408 27.952 27.5248 29.232 27.0768 30.576C26.6608 31.92 26.2448 33.28 25.8288 34.656Z" fill="white"/>
</svg>
