<svg width="50" height="50" viewBox="0 0 50 50" fill="none" xmlns="http://www.w3.org/2000/svg">
<circle cx="25" cy="25" r="25" fill="#2C4D35"/>
<g clip-path="url(#clip0_114_9)">
<path fill-rule="evenodd" clip-rule="evenodd" d="M34.3136 31.5938C33.928 32.6853 32.3952 33.5883 31.1728 33.8523C30.336 34.03 29.2448 34.1705 25.568 32.6469C21.4384 30.936 15.704 24.8416 15.704 20.7859C15.704 18.7213 16.8944 16.3172 18.976 16.3172C19.9776 16.3172 20.1984 16.3367 20.528 17.1273C20.9136 18.0588 21.8544 20.3538 21.9664 20.5891C22.4288 21.5542 21.496 22.1191 20.8192 22.9594C20.6032 23.2122 20.3584 23.4857 20.632 23.9563C20.904 24.4172 21.8448 25.9505 23.2272 27.1812C25.0128 28.7721 26.4608 29.28 26.9792 29.4961C27.3648 29.6561 27.8256 29.6189 28.1072 29.318C28.464 28.9323 28.9072 28.2923 29.3584 27.6617C29.6768 27.2104 30.0816 27.154 30.5056 27.3141C30.792 27.4133 34.432 29.1037 34.5856 29.3742C34.6992 29.5711 34.6992 30.5022 34.3136 31.5938ZM25.0032 9H24.9952C16.1744 9 9 16.1766 9 25C9 28.4987 10.128 31.7445 12.0464 34.3773L10.0528 40.3227L16.2016 38.3578C18.7312 40.0319 21.7504 41 25.0032 41C33.824 41 41 33.8234 41 25C41 16.1766 33.824 9 25.0032 9Z" fill="white"/>
</g>
<defs>
<clipPath id="clip0_114_9">
<rect width="32" height="32" fill="white" transform="translate(9 9)"/>
</clipPath>
</defs>
</svg>
